<svg width="40" height="40" viewBox="0 0 40 40" fill="none" xmlns="http://www.w3.org/2000/svg">
<g clip-path="url(#clip0_40_3409)">
<path fill-rule="evenodd" clip-rule="evenodd" d="M6.66732 19.9997C6.66756 17.4338 7.40817 14.9224 8.8003 12.767C10.1924 10.6115 12.1769 8.90358 14.5157 7.84803C16.8544 6.79248 19.4481 6.43418 21.9854 6.81613C24.5227 7.19808 26.8959 8.30405 28.8203 10.0013C30.7446 11.6986 32.1384 13.9151 32.8343 16.3849C33.5302 18.8546 33.4986 21.4727 32.7435 23.925C31.9883 26.3772 30.5416 28.5595 28.5769 30.21C26.6123 31.8604 24.2131 32.9089 21.6673 33.2297V23.333H25.0007C25.4427 23.333 25.8666 23.1574 26.1792 22.8449C26.4917 22.5323 26.6673 22.1084 26.6673 21.6663C26.6673 21.2243 26.4917 20.8004 26.1792 20.4878C25.8666 20.1753 25.4427 19.9997 25.0007 19.9997H21.6673V16.6663C21.6673 16.2243 21.8429 15.8004 22.1555 15.4878C22.468 15.1753 22.892 14.9997 23.334 14.9997H24.1673C24.6093 14.9997 25.0333 14.8241 25.3458 14.5115C25.6584 14.199 25.834 13.775 25.834 13.333C25.834 12.891 25.6584 12.4671 25.3458 12.1545C25.0333 11.8419 24.6093 11.6663 24.1673 11.6663H23.334C22.0079 11.6663 20.7361 12.1931 19.7985 13.1308C18.8608 14.0685 18.334 15.3403 18.334 16.6663V19.9997H15.0007C14.5586 19.9997 14.1347 20.1753 13.8221 20.4878C13.5096 20.8004 13.334 21.2243 13.334 21.6663C13.334 22.1084 13.5096 22.5323 13.8221 22.8449C14.1347 23.1574 14.5586 23.333 15.0007 23.333H18.334V33.2297C15.1118 32.8234 12.1487 31.2551 10.0007 28.8193C7.85263 26.3834 6.66737 23.2474 6.66732 19.9997ZM20.0007 36.6663C29.2057 36.6663 36.6673 29.2047 36.6673 19.9997C36.6673 10.7947 29.2057 3.33301 20.0007 3.33301C10.7957 3.33301 3.33398 10.7947 3.33398 19.9997C3.33398 29.2047 10.7957 36.6663 20.0007 36.6663Z" fill="white"/>
</g>
<defs>
<clipPath id="clip0_40_3409">
<rect width="40" height="40" fill="white"/>
</clipPath>
</defs>
</svg>
