<svg width="40" height="40" viewBox="0 0 40 40" fill="none" xmlns="http://www.w3.org/2000/svg">
<path d="M28.3327 21.8837V28.0453H24.761V22.2953C24.761 20.852 24.2443 19.867 22.951 19.867C21.9643 19.867 21.376 20.5303 21.1177 21.1737C21.0243 21.4037 20.9993 21.7237 20.9993 22.0437V28.0453H17.426C17.426 28.0453 17.4743 18.3087 17.426 17.3003H20.9993V18.822L20.976 18.857H20.9993V18.822C21.4743 18.0887 22.321 17.047 24.2193 17.047C26.5693 17.047 28.3327 18.5837 28.3327 21.8837ZM13.6877 12.1187C12.466 12.1187 11.666 12.922 11.666 13.9753C11.666 15.0087 12.4427 15.8337 13.641 15.8337H13.6643C14.911 15.8337 15.686 15.007 15.686 13.9753C15.6627 12.922 14.911 12.1187 13.6877 12.1187ZM11.8777 28.0453H15.451V17.3003H11.8777V28.0453Z" fill="white"/>
<path d="M19.9997 33.3335C23.5359 33.3335 26.9273 31.9287 29.4278 29.4283C31.9282 26.9278 33.333 23.5364 33.333 20.0002C33.333 16.4639 31.9282 13.0726 29.4278 10.5721C26.9273 8.07159 23.5359 6.66683 19.9997 6.66683C16.4635 6.66683 13.0721 8.07159 10.5716 10.5721C8.0711 13.0726 6.66634 16.4639 6.66634 20.0002C6.66634 23.5364 8.0711 26.9278 10.5716 29.4283C13.0721 31.9287 16.4635 33.3335 19.9997 33.3335ZM19.9997 36.6668C10.7947 36.6668 3.33301 29.2052 3.33301 20.0002C3.33301 10.7952 10.7947 3.3335 19.9997 3.3335C29.2047 3.3335 36.6663 10.7952 36.6663 20.0002C36.6663 29.2052 29.2047 36.6668 19.9997 36.6668Z" fill="white"/>
</svg>
