<svg width="40" height="40" viewBox="0 0 40 40" fill="none" xmlns="http://www.w3.org/2000/svg">
<path d="M19.9997 33.3335C23.5359 33.3335 26.9273 31.9287 29.4278 29.4283C31.9282 26.9278 33.333 23.5364 33.333 20.0002C33.333 16.4639 31.9282 13.0726 29.4278 10.5721C26.9273 8.07159 23.5359 6.66683 19.9997 6.66683C16.4635 6.66683 13.0721 8.07159 10.5716 10.5721C8.0711 13.0726 6.66634 16.4639 6.66634 20.0002C6.66634 23.5364 8.0711 26.9278 10.5716 29.4283C13.0721 31.9287 16.4635 33.3335 19.9997 33.3335ZM19.9997 36.6668C10.7947 36.6668 3.33301 29.2052 3.33301 20.0002C3.33301 10.7952 10.7947 3.3335 19.9997 3.3335C29.2047 3.3335 36.6663 10.7952 36.6663 20.0002C36.6663 29.2052 29.2047 36.6668 19.9997 36.6668Z" fill="white"/>
<path d="M28.3327 14.9118C27.7193 15.1785 27.061 15.3618 26.3693 15.4418C27.076 15.0252 27.616 14.3652 27.8727 13.5802C27.1993 13.9726 26.4645 14.2487 25.6993 14.3968C25.3775 14.0595 24.9903 13.7912 24.5613 13.6084C24.1323 13.4256 23.6706 13.332 23.2043 13.3335C21.316 13.3335 19.786 14.8418 19.786 16.7002C19.786 16.9635 19.816 17.2202 19.8743 17.4668C18.5199 17.4025 17.1937 17.0566 15.9804 16.4511C14.7671 15.8456 13.6934 14.9938 12.8277 13.9502C12.5236 14.462 12.3635 15.0465 12.3643 15.6418C12.3643 16.8085 12.9693 17.8418 13.886 18.4435C13.3434 18.4265 12.8124 18.282 12.336 18.0218V18.0635C12.3412 18.8459 12.6173 19.6024 13.1175 20.2041C13.6177 20.8058 14.311 21.2155 15.0793 21.3635C14.5749 21.4969 14.0472 21.5162 13.5343 21.4202C13.7579 22.0933 14.1855 22.6801 14.7577 23.0991C15.33 23.5182 16.0185 23.7486 16.7277 23.7585C15.511 24.6961 14.0171 25.2027 12.481 25.1985C12.206 25.1985 11.9343 25.1818 11.666 25.1518C13.2335 26.144 15.051 26.6695 16.906 26.6668C23.196 26.6668 26.6343 21.5368 26.6343 17.0868L26.6227 16.6502C27.2932 16.179 27.8726 15.59 28.3327 14.9118Z" fill="white"/>
</svg>
